<mxfile host="app.diagrams.net" modified="2021-10-10T09:23:18.731Z" agent="5.0 (Windows NT 10.0; Win64; x64) AppleWebKit/537.36 (KHTML, like Gecko) Chrome/79.0.3945.130 Safari/537.36" etag="oOQWp02thnZGwdr4Zt3U" version="15.4.1" type="github">
  <diagram id="c43xZAE3Vjhdf0p7inSZ" name="Page-1">
    <mxGraphModel dx="1422" dy="762" grid="0" gridSize="10" guides="1" tooltips="1" connect="1" arrows="1" fold="1" page="1" pageScale="1" pageWidth="827" pageHeight="1169" math="0" shadow="0">
      <root>
        <mxCell id="0" />
        <mxCell id="1" parent="0" />
        <mxCell id="x4hKiG_jA6550UAF2UbZ-1" value="entry" style="rounded=0;whiteSpace=wrap;html=1;" parent="1" vertex="1">
          <mxGeometry x="520" y="248" width="30" height="20" as="geometry" />
        </mxCell>
        <mxCell id="x4hKiG_jA6550UAF2UbZ-9" value="c" style="rounded=0;whiteSpace=wrap;html=1;" parent="1" vertex="1">
          <mxGeometry x="570" y="331" width="30" height="20" as="geometry" />
        </mxCell>
        <mxCell id="x4hKiG_jA6550UAF2UbZ-10" value="a" style="rounded=0;whiteSpace=wrap;html=1;" parent="1" vertex="1">
          <mxGeometry x="520" y="291" width="30" height="20" as="geometry" />
        </mxCell>
        <mxCell id="x4hKiG_jA6550UAF2UbZ-12" value="b" style="rounded=0;whiteSpace=wrap;html=1;" parent="1" vertex="1">
          <mxGeometry x="460" y="331" width="30" height="20" as="geometry" />
        </mxCell>
        <mxCell id="x4hKiG_jA6550UAF2UbZ-14" value="e" style="rounded=0;whiteSpace=wrap;html=1;" parent="1" vertex="1">
          <mxGeometry x="480" y="371" width="30" height="20" as="geometry" />
        </mxCell>
        <mxCell id="x4hKiG_jA6550UAF2UbZ-15" value="d" style="rounded=0;whiteSpace=wrap;html=1;" parent="1" vertex="1">
          <mxGeometry x="420" y="371" width="30" height="20" as="geometry" />
        </mxCell>
        <mxCell id="x4hKiG_jA6550UAF2UbZ-16" value="f" style="rounded=0;whiteSpace=wrap;html=1;" parent="1" vertex="1">
          <mxGeometry x="450" y="419" width="30" height="20" as="geometry" />
        </mxCell>
        <mxCell id="x4hKiG_jA6550UAF2UbZ-17" value="main1" style="rounded=0;whiteSpace=wrap;html=1;" parent="1" vertex="1">
          <mxGeometry x="192" y="764" width="40" height="20" as="geometry" />
        </mxCell>
        <mxCell id="x4hKiG_jA6550UAF2UbZ-18" value="g" style="rounded=0;whiteSpace=wrap;html=1;fillColor=#fff2cc;strokeColor=#d6b656;" parent="1" vertex="1">
          <mxGeometry x="500" y="451" width="30" height="20" as="geometry" />
        </mxCell>
        <mxCell id="x4hKiG_jA6550UAF2UbZ-20" value="" style="endArrow=classic;html=1;exitX=0.5;exitY=1;exitDx=0;exitDy=0;entryX=1;entryY=0.5;entryDx=0;entryDy=0;" parent="1" source="x4hKiG_jA6550UAF2UbZ-9" target="x4hKiG_jA6550UAF2UbZ-16" edge="1">
          <mxGeometry width="50" height="50" relative="1" as="geometry">
            <mxPoint x="530" y="431" as="sourcePoint" />
            <mxPoint x="580" y="381" as="targetPoint" />
          </mxGeometry>
        </mxCell>
        <mxCell id="x4hKiG_jA6550UAF2UbZ-21" value="" style="endArrow=classic;html=1;exitX=0.5;exitY=1;exitDx=0;exitDy=0;entryX=0.5;entryY=0;entryDx=0;entryDy=0;" parent="1" source="x4hKiG_jA6550UAF2UbZ-1" target="x4hKiG_jA6550UAF2UbZ-10" edge="1">
          <mxGeometry width="50" height="50" relative="1" as="geometry">
            <mxPoint x="770" y="461" as="sourcePoint" />
            <mxPoint x="820" y="411" as="targetPoint" />
          </mxGeometry>
        </mxCell>
        <mxCell id="x4hKiG_jA6550UAF2UbZ-22" value="" style="endArrow=classic;html=1;exitX=0.5;exitY=1;exitDx=0;exitDy=0;entryX=0.5;entryY=0;entryDx=0;entryDy=0;" parent="1" source="x4hKiG_jA6550UAF2UbZ-10" target="x4hKiG_jA6550UAF2UbZ-12" edge="1">
          <mxGeometry width="50" height="50" relative="1" as="geometry">
            <mxPoint x="640" y="461" as="sourcePoint" />
            <mxPoint x="690" y="411" as="targetPoint" />
          </mxGeometry>
        </mxCell>
        <mxCell id="x4hKiG_jA6550UAF2UbZ-23" value="" style="endArrow=classic;html=1;exitX=0.5;exitY=1;exitDx=0;exitDy=0;" parent="1" source="x4hKiG_jA6550UAF2UbZ-10" edge="1">
          <mxGeometry width="50" height="50" relative="1" as="geometry">
            <mxPoint x="610" y="481" as="sourcePoint" />
            <mxPoint x="590" y="331" as="targetPoint" />
          </mxGeometry>
        </mxCell>
        <mxCell id="x4hKiG_jA6550UAF2UbZ-24" value="" style="endArrow=classic;html=1;exitX=0.5;exitY=1;exitDx=0;exitDy=0;entryX=0.5;entryY=0;entryDx=0;entryDy=0;" parent="1" source="x4hKiG_jA6550UAF2UbZ-12" target="x4hKiG_jA6550UAF2UbZ-15" edge="1">
          <mxGeometry width="50" height="50" relative="1" as="geometry">
            <mxPoint x="770" y="461" as="sourcePoint" />
            <mxPoint x="820" y="411" as="targetPoint" />
          </mxGeometry>
        </mxCell>
        <mxCell id="x4hKiG_jA6550UAF2UbZ-25" value="" style="endArrow=classic;html=1;exitX=0.5;exitY=1;exitDx=0;exitDy=0;entryX=0.5;entryY=0;entryDx=0;entryDy=0;" parent="1" source="x4hKiG_jA6550UAF2UbZ-12" target="x4hKiG_jA6550UAF2UbZ-14" edge="1">
          <mxGeometry width="50" height="50" relative="1" as="geometry">
            <mxPoint x="650" y="481" as="sourcePoint" />
            <mxPoint x="700" y="431" as="targetPoint" />
          </mxGeometry>
        </mxCell>
        <mxCell id="x4hKiG_jA6550UAF2UbZ-26" value="" style="endArrow=classic;html=1;exitX=0.5;exitY=1;exitDx=0;exitDy=0;entryX=0.5;entryY=0;entryDx=0;entryDy=0;" parent="1" source="x4hKiG_jA6550UAF2UbZ-14" target="x4hKiG_jA6550UAF2UbZ-16" edge="1">
          <mxGeometry width="50" height="50" relative="1" as="geometry">
            <mxPoint x="580" y="561" as="sourcePoint" />
            <mxPoint x="630" y="511" as="targetPoint" />
          </mxGeometry>
        </mxCell>
        <mxCell id="x4hKiG_jA6550UAF2UbZ-27" value="" style="endArrow=classic;html=1;exitX=0.5;exitY=1;exitDx=0;exitDy=0;entryX=0.5;entryY=0;entryDx=0;entryDy=0;" parent="1" source="x4hKiG_jA6550UAF2UbZ-16" target="x4hKiG_jA6550UAF2UbZ-18" edge="1">
          <mxGeometry width="50" height="50" relative="1" as="geometry">
            <mxPoint x="770" y="461" as="sourcePoint" />
            <mxPoint x="520" y="471" as="targetPoint" />
          </mxGeometry>
        </mxCell>
        <mxCell id="x4hKiG_jA6550UAF2UbZ-29" value="exit" style="rounded=0;whiteSpace=wrap;html=1;" parent="1" vertex="1">
          <mxGeometry x="500" y="487" width="30" height="20" as="geometry" />
        </mxCell>
        <mxCell id="x4hKiG_jA6550UAF2UbZ-30" value="" style="endArrow=classic;html=1;exitX=0.5;exitY=1;exitDx=0;exitDy=0;entryX=0.5;entryY=0;entryDx=0;entryDy=0;" parent="1" source="x4hKiG_jA6550UAF2UbZ-18" target="x4hKiG_jA6550UAF2UbZ-29" edge="1">
          <mxGeometry width="50" height="50" relative="1" as="geometry">
            <mxPoint x="770" y="461" as="sourcePoint" />
            <mxPoint x="820" y="411" as="targetPoint" />
          </mxGeometry>
        </mxCell>
        <mxCell id="x4hKiG_jA6550UAF2UbZ-31" value="main" style="rounded=0;whiteSpace=wrap;html=1;" parent="1" vertex="1">
          <mxGeometry x="272" y="264" width="30" height="20" as="geometry" />
        </mxCell>
        <mxCell id="x4hKiG_jA6550UAF2UbZ-32" value="G" style="rounded=0;whiteSpace=wrap;html=1;fillColor=#fff2cc;strokeColor=#d6b656;" parent="1" vertex="1">
          <mxGeometry x="275.5" y="454" width="30" height="20" as="geometry" />
        </mxCell>
        <mxCell id="x4hKiG_jA6550UAF2UbZ-33" value="A" style="rounded=0;whiteSpace=wrap;html=1;" parent="1" vertex="1">
          <mxGeometry x="226.5" y="324" width="30" height="20" as="geometry" />
        </mxCell>
        <mxCell id="x4hKiG_jA6550UAF2UbZ-35" value="B" style="rounded=0;whiteSpace=wrap;html=1;" parent="1" vertex="1">
          <mxGeometry x="335" y="324" width="30" height="20" as="geometry" />
        </mxCell>
        <mxCell id="x4hKiG_jA6550UAF2UbZ-36" value="D" style="rounded=0;whiteSpace=wrap;html=1;" parent="1" vertex="1">
          <mxGeometry x="226.5" y="394" width="30" height="20" as="geometry" />
        </mxCell>
        <mxCell id="x4hKiG_jA6550UAF2UbZ-37" value="E" style="rounded=0;whiteSpace=wrap;html=1;" parent="1" vertex="1">
          <mxGeometry x="312" y="394" width="30" height="20" as="geometry" />
        </mxCell>
        <mxCell id="x4hKiG_jA6550UAF2UbZ-38" value="C" style="rounded=0;whiteSpace=wrap;html=1;" parent="1" vertex="1">
          <mxGeometry x="150" y="394" width="30" height="20" as="geometry" />
        </mxCell>
        <mxCell id="x4hKiG_jA6550UAF2UbZ-39" value="F" style="rounded=0;whiteSpace=wrap;html=1;" parent="1" vertex="1">
          <mxGeometry x="370" y="394" width="30" height="20" as="geometry" />
        </mxCell>
        <mxCell id="x4hKiG_jA6550UAF2UbZ-43" value="" style="endArrow=classic;html=1;exitX=0.25;exitY=1;exitDx=0;exitDy=0;entryX=0.5;entryY=0;entryDx=0;entryDy=0;" parent="1" source="x4hKiG_jA6550UAF2UbZ-31" target="x4hKiG_jA6550UAF2UbZ-33" edge="1">
          <mxGeometry width="50" height="50" relative="1" as="geometry">
            <mxPoint x="152" y="654" as="sourcePoint" />
            <mxPoint x="232" y="324" as="targetPoint" />
          </mxGeometry>
        </mxCell>
        <mxCell id="x4hKiG_jA6550UAF2UbZ-45" value="" style="endArrow=classic;html=1;exitX=0.5;exitY=1;exitDx=0;exitDy=0;entryX=0.5;entryY=0;entryDx=0;entryDy=0;" parent="1" source="x4hKiG_jA6550UAF2UbZ-31" target="x4hKiG_jA6550UAF2UbZ-35" edge="1">
          <mxGeometry width="50" height="50" relative="1" as="geometry">
            <mxPoint x="272" y="604" as="sourcePoint" />
            <mxPoint x="322" y="554" as="targetPoint" />
          </mxGeometry>
        </mxCell>
        <mxCell id="x4hKiG_jA6550UAF2UbZ-46" value="" style="endArrow=classic;html=1;exitX=0.5;exitY=1;exitDx=0;exitDy=0;entryX=0.5;entryY=0;entryDx=0;entryDy=0;" parent="1" source="x4hKiG_jA6550UAF2UbZ-33" target="x4hKiG_jA6550UAF2UbZ-38" edge="1">
          <mxGeometry width="50" height="50" relative="1" as="geometry">
            <mxPoint x="216.5" y="654" as="sourcePoint" />
            <mxPoint x="169" y="394" as="targetPoint" />
          </mxGeometry>
        </mxCell>
        <mxCell id="x4hKiG_jA6550UAF2UbZ-47" value="" style="endArrow=classic;html=1;entryX=0.5;entryY=0;entryDx=0;entryDy=0;" parent="1" target="x4hKiG_jA6550UAF2UbZ-32" edge="1">
          <mxGeometry width="50" height="50" relative="1" as="geometry">
            <mxPoint x="242" y="344" as="sourcePoint" />
            <mxPoint x="336.5" y="574" as="targetPoint" />
          </mxGeometry>
        </mxCell>
        <mxCell id="x4hKiG_jA6550UAF2UbZ-48" value="" style="endArrow=classic;html=1;exitX=0.5;exitY=1;exitDx=0;exitDy=0;" parent="1" source="x4hKiG_jA6550UAF2UbZ-35" edge="1">
          <mxGeometry width="50" height="50" relative="1" as="geometry">
            <mxPoint x="252" y="494" as="sourcePoint" />
            <mxPoint x="332" y="394" as="targetPoint" />
          </mxGeometry>
        </mxCell>
        <mxCell id="x4hKiG_jA6550UAF2UbZ-51" value="" style="endArrow=classic;html=1;" parent="1" edge="1">
          <mxGeometry width="50" height="50" relative="1" as="geometry">
            <mxPoint x="241.5" y="344" as="sourcePoint" />
            <mxPoint x="241.5" y="394" as="targetPoint" />
          </mxGeometry>
        </mxCell>
        <mxCell id="x4hKiG_jA6550UAF2UbZ-52" value="" style="endArrow=classic;html=1;exitX=0.5;exitY=1;exitDx=0;exitDy=0;entryX=0.5;entryY=0;entryDx=0;entryDy=0;" parent="1" source="x4hKiG_jA6550UAF2UbZ-35" target="x4hKiG_jA6550UAF2UbZ-39" edge="1">
          <mxGeometry width="50" height="50" relative="1" as="geometry">
            <mxPoint x="252" y="494" as="sourcePoint" />
            <mxPoint x="432" y="394" as="targetPoint" />
          </mxGeometry>
        </mxCell>
        <mxCell id="x4hKiG_jA6550UAF2UbZ-54" value="" style="endArrow=classic;html=1;exitX=0.5;exitY=1;exitDx=0;exitDy=0;" parent="1" source="x4hKiG_jA6550UAF2UbZ-36" edge="1">
          <mxGeometry width="50" height="50" relative="1" as="geometry">
            <mxPoint x="275.5" y="534" as="sourcePoint" />
            <mxPoint x="290.5" y="454" as="targetPoint" />
          </mxGeometry>
        </mxCell>
        <mxCell id="x4hKiG_jA6550UAF2UbZ-55" value="A1" style="rounded=0;whiteSpace=wrap;html=1;" parent="1" vertex="1">
          <mxGeometry x="262" y="764" width="30" height="20" as="geometry" />
        </mxCell>
        <mxCell id="x4hKiG_jA6550UAF2UbZ-56" value="entry" style="rounded=0;whiteSpace=wrap;html=1;" parent="1" vertex="1">
          <mxGeometry x="321" y="764" width="30" height="20" as="geometry" />
        </mxCell>
        <mxCell id="x4hKiG_jA6550UAF2UbZ-57" value="a" style="rounded=0;whiteSpace=wrap;html=1;" parent="1" vertex="1">
          <mxGeometry x="382" y="764" width="30" height="20" as="geometry" />
        </mxCell>
        <mxCell id="x4hKiG_jA6550UAF2UbZ-60" value="" style="endArrow=classic;html=1;exitX=1;exitY=0.5;exitDx=0;exitDy=0;entryX=0;entryY=0.5;entryDx=0;entryDy=0;" parent="1" source="x4hKiG_jA6550UAF2UbZ-17" target="x4hKiG_jA6550UAF2UbZ-55" edge="1">
          <mxGeometry width="50" height="50" relative="1" as="geometry">
            <mxPoint x="312" y="724" as="sourcePoint" />
            <mxPoint x="362" y="674" as="targetPoint" />
          </mxGeometry>
        </mxCell>
        <mxCell id="x4hKiG_jA6550UAF2UbZ-61" value="" style="endArrow=classic;html=1;exitX=1;exitY=0.5;exitDx=0;exitDy=0;entryX=0;entryY=0.5;entryDx=0;entryDy=0;" parent="1" source="x4hKiG_jA6550UAF2UbZ-55" target="x4hKiG_jA6550UAF2UbZ-56" edge="1">
          <mxGeometry width="50" height="50" relative="1" as="geometry">
            <mxPoint x="312" y="724" as="sourcePoint" />
            <mxPoint x="362" y="674" as="targetPoint" />
          </mxGeometry>
        </mxCell>
        <mxCell id="x4hKiG_jA6550UAF2UbZ-62" value="" style="endArrow=classic;html=1;entryX=0;entryY=0.5;entryDx=0;entryDy=0;" parent="1" target="x4hKiG_jA6550UAF2UbZ-57" edge="1">
          <mxGeometry width="50" height="50" relative="1" as="geometry">
            <mxPoint x="352" y="774" as="sourcePoint" />
            <mxPoint x="362" y="674" as="targetPoint" />
          </mxGeometry>
        </mxCell>
        <mxCell id="x4hKiG_jA6550UAF2UbZ-63" value="f" style="rounded=0;whiteSpace=wrap;html=1;" parent="1" vertex="1">
          <mxGeometry x="442" y="764" width="30" height="20" as="geometry" />
        </mxCell>
        <mxCell id="x4hKiG_jA6550UAF2UbZ-64" value="" style="endArrow=classic;html=1;exitX=1;exitY=0.5;exitDx=0;exitDy=0;entryX=0;entryY=0.5;entryDx=0;entryDy=0;" parent="1" source="x4hKiG_jA6550UAF2UbZ-57" target="x4hKiG_jA6550UAF2UbZ-63" edge="1">
          <mxGeometry width="50" height="50" relative="1" as="geometry">
            <mxPoint x="312" y="724" as="sourcePoint" />
            <mxPoint x="362" y="674" as="targetPoint" />
          </mxGeometry>
        </mxCell>
        <mxCell id="x4hKiG_jA6550UAF2UbZ-65" value="&lt;b&gt;CFG of&amp;nbsp;&lt;/b&gt;&lt;b&gt;Function G&lt;/b&gt;" style="text;html=1;strokeColor=none;fillColor=none;align=center;verticalAlign=middle;whiteSpace=wrap;rounded=0;" parent="1" vertex="1">
          <mxGeometry x="566.5" y="277" width="120" height="20" as="geometry" />
        </mxCell>
        <mxCell id="x4hKiG_jA6550UAF2UbZ-66" value="&lt;b&gt;CG&lt;/b&gt;" style="text;html=1;strokeColor=none;fillColor=none;align=center;verticalAlign=middle;whiteSpace=wrap;rounded=0;" parent="1" vertex="1">
          <mxGeometry x="177" y="288" width="40" height="20" as="geometry" />
        </mxCell>
        <mxCell id="x4hKiG_jA6550UAF2UbZ-67" value="Target Sequence" style="text;html=1;strokeColor=none;fillColor=none;align=center;verticalAlign=middle;whiteSpace=wrap;rounded=0;" parent="1" vertex="1">
          <mxGeometry x="306" y="739" width="94" height="18" as="geometry" />
        </mxCell>
        <mxCell id="SDPnApyG43Ei_WfPEWda-3" value="main" style="rounded=0;whiteSpace=wrap;html=1;fillColor=#dae8fc;strokeColor=#6c8ebf;" parent="1" vertex="1">
          <mxGeometry x="251" y="507" width="30" height="20" as="geometry" />
        </mxCell>
        <mxCell id="SDPnApyG43Ei_WfPEWda-4" value="G" style="rounded=0;whiteSpace=wrap;html=1;fillColor=#fff2cc;strokeColor=#d6b656;" parent="1" vertex="1">
          <mxGeometry x="244" y="639" width="30" height="20" as="geometry" />
        </mxCell>
        <mxCell id="SDPnApyG43Ei_WfPEWda-5" value="A" style="rounded=0;whiteSpace=wrap;html=1;strokeColor=#6c8ebf;fillColor=#DAE8FC;" parent="1" vertex="1">
          <mxGeometry x="205.5" y="567" width="30" height="20" as="geometry" />
        </mxCell>
        <mxCell id="SDPnApyG43Ei_WfPEWda-6" value="B" style="rounded=0;whiteSpace=wrap;html=1;" parent="1" vertex="1">
          <mxGeometry x="314" y="567" width="30" height="20" as="geometry" />
        </mxCell>
        <mxCell id="SDPnApyG43Ei_WfPEWda-7" value="D" style="rounded=0;whiteSpace=wrap;html=1;" parent="1" vertex="1">
          <mxGeometry x="192" y="637" width="30" height="20" as="geometry" />
        </mxCell>
        <mxCell id="SDPnApyG43Ei_WfPEWda-8" value="E" style="rounded=0;whiteSpace=wrap;html=1;" parent="1" vertex="1">
          <mxGeometry x="291" y="637" width="30" height="20" as="geometry" />
        </mxCell>
        <mxCell id="SDPnApyG43Ei_WfPEWda-9" value="C" style="rounded=0;whiteSpace=wrap;html=1;" parent="1" vertex="1">
          <mxGeometry x="129" y="637" width="30" height="20" as="geometry" />
        </mxCell>
        <mxCell id="SDPnApyG43Ei_WfPEWda-10" value="F" style="rounded=0;whiteSpace=wrap;html=1;" parent="1" vertex="1">
          <mxGeometry x="349" y="637" width="30" height="20" as="geometry" />
        </mxCell>
        <mxCell id="SDPnApyG43Ei_WfPEWda-11" value="" style="endArrow=classic;html=1;exitX=0.25;exitY=1;exitDx=0;exitDy=0;entryX=0.5;entryY=0;entryDx=0;entryDy=0;" parent="1" source="SDPnApyG43Ei_WfPEWda-3" target="SDPnApyG43Ei_WfPEWda-5" edge="1">
          <mxGeometry width="50" height="50" relative="1" as="geometry">
            <mxPoint x="131" y="897" as="sourcePoint" />
            <mxPoint x="211" y="567" as="targetPoint" />
          </mxGeometry>
        </mxCell>
        <mxCell id="SDPnApyG43Ei_WfPEWda-12" value="" style="endArrow=classic;html=1;exitX=0.5;exitY=1;exitDx=0;exitDy=0;entryX=0.5;entryY=0;entryDx=0;entryDy=0;" parent="1" source="SDPnApyG43Ei_WfPEWda-3" target="SDPnApyG43Ei_WfPEWda-6" edge="1">
          <mxGeometry width="50" height="50" relative="1" as="geometry">
            <mxPoint x="251" y="847" as="sourcePoint" />
            <mxPoint x="301" y="797" as="targetPoint" />
          </mxGeometry>
        </mxCell>
        <mxCell id="SDPnApyG43Ei_WfPEWda-13" value="" style="endArrow=classic;html=1;exitX=0.5;exitY=1;exitDx=0;exitDy=0;entryX=0.5;entryY=0;entryDx=0;entryDy=0;" parent="1" source="SDPnApyG43Ei_WfPEWda-5" target="SDPnApyG43Ei_WfPEWda-9" edge="1">
          <mxGeometry width="50" height="50" relative="1" as="geometry">
            <mxPoint x="195.5" y="897" as="sourcePoint" />
            <mxPoint x="148" y="637" as="targetPoint" />
          </mxGeometry>
        </mxCell>
        <mxCell id="SDPnApyG43Ei_WfPEWda-14" value="" style="endArrow=classic;html=1;entryX=0.5;entryY=0;entryDx=0;entryDy=0;" parent="1" target="SDPnApyG43Ei_WfPEWda-4" edge="1">
          <mxGeometry width="50" height="50" relative="1" as="geometry">
            <mxPoint x="221" y="587" as="sourcePoint" />
            <mxPoint x="315.5" y="817" as="targetPoint" />
          </mxGeometry>
        </mxCell>
        <mxCell id="SDPnApyG43Ei_WfPEWda-15" value="" style="endArrow=classic;html=1;exitX=0.5;exitY=1;exitDx=0;exitDy=0;" parent="1" source="SDPnApyG43Ei_WfPEWda-6" edge="1">
          <mxGeometry width="50" height="50" relative="1" as="geometry">
            <mxPoint x="231" y="737" as="sourcePoint" />
            <mxPoint x="311" y="637" as="targetPoint" />
          </mxGeometry>
        </mxCell>
        <mxCell id="SDPnApyG43Ei_WfPEWda-16" value="" style="endArrow=classic;html=1;entryX=0.5;entryY=0;entryDx=0;entryDy=0;" parent="1" target="SDPnApyG43Ei_WfPEWda-7" edge="1">
          <mxGeometry width="50" height="50" relative="1" as="geometry">
            <mxPoint x="220.5" y="587" as="sourcePoint" />
            <mxPoint x="220.5" y="637" as="targetPoint" />
          </mxGeometry>
        </mxCell>
        <mxCell id="SDPnApyG43Ei_WfPEWda-17" value="" style="endArrow=classic;html=1;exitX=0.5;exitY=1;exitDx=0;exitDy=0;entryX=0.5;entryY=0;entryDx=0;entryDy=0;" parent="1" source="SDPnApyG43Ei_WfPEWda-6" target="SDPnApyG43Ei_WfPEWda-10" edge="1">
          <mxGeometry width="50" height="50" relative="1" as="geometry">
            <mxPoint x="231" y="737" as="sourcePoint" />
            <mxPoint x="411" y="637" as="targetPoint" />
          </mxGeometry>
        </mxCell>
        <mxCell id="SDPnApyG43Ei_WfPEWda-19" value="&lt;b&gt;domCg&lt;/b&gt;" style="text;html=1;strokeColor=none;fillColor=none;align=center;verticalAlign=middle;whiteSpace=wrap;rounded=0;" parent="1" vertex="1">
          <mxGeometry x="174" y="531" width="46" height="25" as="geometry" />
        </mxCell>
        <mxCell id="SDPnApyG43Ei_WfPEWda-21" value="entry" style="rounded=0;whiteSpace=wrap;html=1;fillColor=#dae8fc;strokeColor=#6c8ebf;" parent="1" vertex="1">
          <mxGeometry x="550" y="515" width="30" height="20" as="geometry" />
        </mxCell>
        <mxCell id="SDPnApyG43Ei_WfPEWda-22" value="c" style="rounded=0;whiteSpace=wrap;html=1;" parent="1" vertex="1">
          <mxGeometry x="611.25" y="618" width="30" height="20" as="geometry" />
        </mxCell>
        <mxCell id="SDPnApyG43Ei_WfPEWda-23" value="a" style="rounded=0;whiteSpace=wrap;html=1;fillColor=#dae8fc;strokeColor=#6c8ebf;" parent="1" vertex="1">
          <mxGeometry x="550" y="558" width="30" height="20" as="geometry" />
        </mxCell>
        <mxCell id="SDPnApyG43Ei_WfPEWda-24" value="b" style="rounded=0;whiteSpace=wrap;html=1;" parent="1" vertex="1">
          <mxGeometry x="490" y="598" width="30" height="20" as="geometry" />
        </mxCell>
        <mxCell id="SDPnApyG43Ei_WfPEWda-25" value="e" style="rounded=0;whiteSpace=wrap;html=1;" parent="1" vertex="1">
          <mxGeometry x="510" y="638" width="30" height="20" as="geometry" />
        </mxCell>
        <mxCell id="SDPnApyG43Ei_WfPEWda-26" value="d" style="rounded=0;whiteSpace=wrap;html=1;" parent="1" vertex="1">
          <mxGeometry x="450" y="638" width="30" height="20" as="geometry" />
        </mxCell>
        <mxCell id="SDPnApyG43Ei_WfPEWda-27" value="f" style="rounded=0;whiteSpace=wrap;html=1;fillColor=#dae8fc;strokeColor=#6c8ebf;" parent="1" vertex="1">
          <mxGeometry x="550" y="618" width="30" height="20" as="geometry" />
        </mxCell>
        <mxCell id="SDPnApyG43Ei_WfPEWda-28" value="g" style="rounded=0;whiteSpace=wrap;html=1;fillColor=#fff2cc;strokeColor=#d6b656;" parent="1" vertex="1">
          <mxGeometry x="550" y="664" width="30" height="20" as="geometry" />
        </mxCell>
        <mxCell id="SDPnApyG43Ei_WfPEWda-30" value="" style="endArrow=classic;html=1;exitX=0.5;exitY=1;exitDx=0;exitDy=0;entryX=0.5;entryY=0;entryDx=0;entryDy=0;" parent="1" source="SDPnApyG43Ei_WfPEWda-21" target="SDPnApyG43Ei_WfPEWda-23" edge="1">
          <mxGeometry width="50" height="50" relative="1" as="geometry">
            <mxPoint x="800" y="728" as="sourcePoint" />
            <mxPoint x="850" y="678" as="targetPoint" />
          </mxGeometry>
        </mxCell>
        <mxCell id="SDPnApyG43Ei_WfPEWda-31" value="" style="endArrow=classic;html=1;exitX=0.5;exitY=1;exitDx=0;exitDy=0;entryX=0.5;entryY=0;entryDx=0;entryDy=0;" parent="1" source="SDPnApyG43Ei_WfPEWda-23" target="SDPnApyG43Ei_WfPEWda-24" edge="1">
          <mxGeometry width="50" height="50" relative="1" as="geometry">
            <mxPoint x="670" y="728" as="sourcePoint" />
            <mxPoint x="720" y="678" as="targetPoint" />
          </mxGeometry>
        </mxCell>
        <mxCell id="SDPnApyG43Ei_WfPEWda-32" value="" style="endArrow=classic;html=1;exitX=0.5;exitY=1;exitDx=0;exitDy=0;entryX=0.5;entryY=0;entryDx=0;entryDy=0;" parent="1" source="SDPnApyG43Ei_WfPEWda-23" target="SDPnApyG43Ei_WfPEWda-22" edge="1">
          <mxGeometry width="50" height="50" relative="1" as="geometry">
            <mxPoint x="640" y="748" as="sourcePoint" />
            <mxPoint x="620" y="598" as="targetPoint" />
          </mxGeometry>
        </mxCell>
        <mxCell id="SDPnApyG43Ei_WfPEWda-33" value="" style="endArrow=classic;html=1;exitX=0.5;exitY=1;exitDx=0;exitDy=0;entryX=0.5;entryY=0;entryDx=0;entryDy=0;" parent="1" source="SDPnApyG43Ei_WfPEWda-24" target="SDPnApyG43Ei_WfPEWda-26" edge="1">
          <mxGeometry width="50" height="50" relative="1" as="geometry">
            <mxPoint x="800" y="728" as="sourcePoint" />
            <mxPoint x="850" y="678" as="targetPoint" />
          </mxGeometry>
        </mxCell>
        <mxCell id="SDPnApyG43Ei_WfPEWda-34" value="" style="endArrow=classic;html=1;exitX=0.5;exitY=1;exitDx=0;exitDy=0;entryX=0.5;entryY=0;entryDx=0;entryDy=0;" parent="1" source="SDPnApyG43Ei_WfPEWda-24" target="SDPnApyG43Ei_WfPEWda-25" edge="1">
          <mxGeometry width="50" height="50" relative="1" as="geometry">
            <mxPoint x="680" y="748" as="sourcePoint" />
            <mxPoint x="730" y="698" as="targetPoint" />
          </mxGeometry>
        </mxCell>
        <mxCell id="SDPnApyG43Ei_WfPEWda-36" value="" style="endArrow=classic;html=1;exitX=0.5;exitY=1;exitDx=0;exitDy=0;entryX=0.5;entryY=0;entryDx=0;entryDy=0;" parent="1" source="SDPnApyG43Ei_WfPEWda-27" target="SDPnApyG43Ei_WfPEWda-28" edge="1">
          <mxGeometry width="50" height="50" relative="1" as="geometry">
            <mxPoint x="799.25" y="708" as="sourcePoint" />
            <mxPoint x="549.25" y="718" as="targetPoint" />
          </mxGeometry>
        </mxCell>
        <mxCell id="SDPnApyG43Ei_WfPEWda-37" value="exit" style="rounded=0;whiteSpace=wrap;html=1;" parent="1" vertex="1">
          <mxGeometry x="549.25" y="706" width="30" height="20" as="geometry" />
        </mxCell>
        <mxCell id="SDPnApyG43Ei_WfPEWda-38" value="" style="endArrow=classic;html=1;exitX=0.5;exitY=1;exitDx=0;exitDy=0;entryX=0.5;entryY=0;entryDx=0;entryDy=0;" parent="1" source="SDPnApyG43Ei_WfPEWda-28" target="SDPnApyG43Ei_WfPEWda-37" edge="1">
          <mxGeometry width="50" height="50" relative="1" as="geometry">
            <mxPoint x="799.25" y="708" as="sourcePoint" />
            <mxPoint x="849.25" y="658" as="targetPoint" />
          </mxGeometry>
        </mxCell>
        <mxCell id="SDPnApyG43Ei_WfPEWda-39" value="&lt;b&gt;domCfg of&amp;nbsp;&lt;/b&gt;&lt;b&gt;Function G&lt;/b&gt;" style="text;html=1;strokeColor=none;fillColor=none;align=center;verticalAlign=middle;whiteSpace=wrap;rounded=0;" parent="1" vertex="1">
          <mxGeometry x="600" y="550" width="147.5" height="22" as="geometry" />
        </mxCell>
        <mxCell id="SDPnApyG43Ei_WfPEWda-42" value="" style="endArrow=classic;html=1;exitX=0.5;exitY=1;exitDx=0;exitDy=0;" parent="1" source="SDPnApyG43Ei_WfPEWda-23" edge="1">
          <mxGeometry width="50" height="50" relative="1" as="geometry">
            <mxPoint x="810.25" y="762" as="sourcePoint" />
            <mxPoint x="565.25" y="620" as="targetPoint" />
          </mxGeometry>
        </mxCell>
        <mxCell id="SDPnApyG43Ei_WfPEWda-45" value="g" style="rounded=0;whiteSpace=wrap;html=1;" parent="1" vertex="1">
          <mxGeometry x="504" y="764" width="30" height="20" as="geometry" />
        </mxCell>
        <mxCell id="SDPnApyG43Ei_WfPEWda-46" value="" style="endArrow=classic;html=1;entryX=0;entryY=0.5;entryDx=0;entryDy=0;" parent="1" source="x4hKiG_jA6550UAF2UbZ-63" target="SDPnApyG43Ei_WfPEWda-45" edge="1">
          <mxGeometry width="50" height="50" relative="1" as="geometry">
            <mxPoint x="474" y="774" as="sourcePoint" />
            <mxPoint x="424" y="674" as="targetPoint" />
          </mxGeometry>
        </mxCell>
        <mxCell id="03oJEwXCugFLbI1b-xZS-4" value="" style="curved=1;endArrow=classic;html=1;rounded=0;edgeStyle=orthogonalEdgeStyle;exitX=0.5;exitY=1;exitDx=0;exitDy=0;entryX=0.5;entryY=0;entryDx=0;entryDy=0;dashed=1;" edge="1" parent="1" source="x4hKiG_jA6550UAF2UbZ-65" target="SDPnApyG43Ei_WfPEWda-39">
          <mxGeometry width="50" height="50" relative="1" as="geometry">
            <mxPoint x="636.5" y="451" as="sourcePoint" />
            <mxPoint x="674" y="544" as="targetPoint" />
            <Array as="points">
              <mxPoint x="674" y="297" />
            </Array>
          </mxGeometry>
        </mxCell>
        <mxCell id="03oJEwXCugFLbI1b-xZS-5" value="" style="curved=1;endArrow=classic;html=1;rounded=0;dashed=1;edgeStyle=orthogonalEdgeStyle;exitX=0;exitY=0.5;exitDx=0;exitDy=0;entryX=0.25;entryY=0;entryDx=0;entryDy=0;" edge="1" parent="1" source="x4hKiG_jA6550UAF2UbZ-66" target="SDPnApyG43Ei_WfPEWda-19">
          <mxGeometry width="50" height="50" relative="1" as="geometry">
            <mxPoint x="75" y="493" as="sourcePoint" />
            <mxPoint x="125" y="443" as="targetPoint" />
            <Array as="points">
              <mxPoint x="127" y="298" />
              <mxPoint x="127" y="515" />
              <mxPoint x="186" y="515" />
            </Array>
          </mxGeometry>
        </mxCell>
        <mxCell id="03oJEwXCugFLbI1b-xZS-6" value="" style="curved=1;endArrow=classic;html=1;rounded=0;dashed=1;edgeStyle=orthogonalEdgeStyle;exitX=0;exitY=0.5;exitDx=0;exitDy=0;" edge="1" parent="1" source="SDPnApyG43Ei_WfPEWda-19" target="x4hKiG_jA6550UAF2UbZ-67">
          <mxGeometry width="50" height="50" relative="1" as="geometry">
            <mxPoint x="106" y="789" as="sourcePoint" />
            <mxPoint x="156" y="739" as="targetPoint" />
            <Array as="points">
              <mxPoint x="103" y="544" />
              <mxPoint x="103" y="748" />
            </Array>
          </mxGeometry>
        </mxCell>
        <mxCell id="03oJEwXCugFLbI1b-xZS-7" value="" style="curved=1;endArrow=classic;html=1;rounded=0;dashed=1;edgeStyle=orthogonalEdgeStyle;exitX=0.5;exitY=1;exitDx=0;exitDy=0;entryX=1;entryY=0.5;entryDx=0;entryDy=0;" edge="1" parent="1" source="SDPnApyG43Ei_WfPEWda-39" target="x4hKiG_jA6550UAF2UbZ-67">
          <mxGeometry width="50" height="50" relative="1" as="geometry">
            <mxPoint x="683" y="755" as="sourcePoint" />
            <mxPoint x="418" y="741" as="targetPoint" />
            <Array as="points">
              <mxPoint x="674" y="750" />
              <mxPoint x="418" y="750" />
            </Array>
          </mxGeometry>
        </mxCell>
      </root>
    </mxGraphModel>
  </diagram>
</mxfile>
